<svg xmlns="http://www.w3.org/2000/svg" viewBox="0 0 500 500" width="14" height="14">
  <circle cx="129" cy="250" r="100" fill="#00E054"/>
  <circle cx="250" cy="250" r="100" fill="#40BCF4"/>
  <circle cx="371" cy="250" r="100" fill="#FF8000"/>
  <path d="M189.5,250c0-36.5,19.6-68.4,48.9-85.8c-18.5-11.2-40.1-17.7-63.2-17.7c-67.1,0-121.5,54.4-121.5,121.5s54.4,121.5,121.5,121.5c23.1,0,44.7-6.5,63.2-17.7C209.1,318.4,189.5,286.5,189.5,250z" fill="#00E054"/>
  <path d="M250,164.5c-23.1,0-44.7,6.5-63.2,17.7c29.3,17.4,48.9,49.3,48.9,85.8s-19.6,68.4-48.9,85.8c18.5,11.2,40.1,17.7,63.2,17.7c67.1,0,121.5-54.4,121.5-121.5S317.1,164.5,250,164.5z" fill="#40BCF4"/>
</svg>
